<svg id="Capa_1" data-name="Capa 1" xmlns="http://www.w3.org/2000/svg" xmlns:xlink="http://www.w3.org/1999/xlink" viewBox="0 0 200 194"><defs><style>.cls-1{fill:url(#Degradado_sin_nombre_10);}</style><linearGradient id="Degradado_sin_nombre_10" x1="20.04" y1="97" x2="179.96" y2="97" gradientUnits="userSpaceOnUse"><stop offset="0" stop-color="#e386fc"/><stop offset="1" stop-color="#1e9cd7"/></linearGradient></defs><path class="cls-1" d="M156.74,27A13.23,13.23,0,0,1,170,40.26V153.74A13.23,13.23,0,0,1,156.74,167H43.26A13.23,13.23,0,0,1,30,153.74V40.26A13.23,13.23,0,0,1,43.26,27H156.74m0-10H43.26A23.23,23.23,0,0,0,20,40.26V153.74A23.23,23.23,0,0,0,43.26,177H156.74A23.23,23.23,0,0,0,180,153.74V40.26A23.23,23.23,0,0,0,156.74,17Z"/></svg>